<?xml version="1.0" encoding="UTF-8"?>
<svg id="Layer_1" data-name="Layer 1" xmlns="http://www.w3.org/2000/svg" viewBox="0 0 612 144">
  <defs>
    <style>
      .cls-1 {
        font-family: Inter-Medium, Inter;
        font-size: 90.85px;
        font-weight: 500;
        letter-spacing: -.05em;
      }

      .cls-1, .cls-2 {
        fill: #fff;
      }
    </style>
  </defs>
  <text class="cls-1" transform="translate(202.08 96.71)"><tspan x="0" y="0">Cadenza</tspan></text>
  <g>
    <path class="cls-2" d="M54.7,54.73c7.82,26.17,34.73,38.76,60.32,33.72,23.97-4.39,41.55-26.69,42.17-50.92,0,0,21.85,9.94,21.85,9.94-1.42,7.62-3.29,11.62-7.05,18.51-17.96,33.93-65.18,44.56-96.4,23.01-11.53-7.84-19.42-20.51-21.59-34.09,0,0,.7-.17.7-.17h0Z"/>
    <polygon class="cls-2" points="168.44 42.65 130.25 25.21 167.1 47.96 168.44 42.65"/>
    <circle class="cls-2" cx="113.29" cy="63.57" r="13.96"/>
  </g>
</svg>