<?xml version="1.0" encoding="UTF-8"?>
<svg id="Layer_1" data-name="Layer 1" xmlns="http://www.w3.org/2000/svg" viewBox="0 0 144 144">
  <defs>
    <style>
      .cls-1 {
        fill: #1d293b;
      }

      .cls-2 {
        fill: #d5a44c;
      }
    </style>
  </defs>
  <rect class="cls-1" x="-9.97" y="-9.29" width="163.95" height="163.95"/>
  <g>
    <path class="cls-2" d="M24.15,65.84c6.05,20.25,26.88,30,46.69,26.1,18.55-3.4,32.15-20.66,32.64-39.41,0,0,16.91,7.69,16.91,7.69-1.1,5.9-2.54,8.99-5.46,14.32-13.9,26.26-50.45,34.48-74.61,17.81-8.92-6.07-15.03-15.88-16.71-26.39,0,0,.54-.13.54-.13h0Z"/>
    <polygon class="cls-2" points="112.18 56.49 82.63 42.99 111.15 60.6 112.18 56.49"/>
    <circle class="cls-2" cx="69.5" cy="72.68" r="10.81"/>
  </g>
</svg>