<?xml version="1.0" encoding="UTF-8"?>
<svg id="Layer_1" data-name="Layer 1" xmlns="http://www.w3.org/2000/svg" viewBox="0 0 612 144">
  <defs>
    <style>
      .cls-1, .cls-2 {
        fill: #231f20;
      }

      .cls-2 {
        font-family: Inter-Medium, Inter;
        font-size: 90.85px;
        font-weight: 500;
        letter-spacing: -.05em;
      }
    </style>
  </defs>
  <text class="cls-2" transform="translate(201.55 104.93)"><tspan x="0" y="0">Cadenza</tspan></text>
  <g>
    <path class="cls-1" d="M54.18,62.94c7.82,26.17,34.73,38.76,60.32,33.72,23.97-4.39,41.55-26.69,42.17-50.92,0,0,21.85,9.94,21.85,9.94-1.42,7.62-3.29,11.62-7.05,18.51-17.96,33.93-65.18,44.56-96.4,23.01-11.53-7.84-19.42-20.51-21.59-34.09,0,0,.7-.17.7-.17h0Z"/>
    <polygon class="cls-1" points="167.91 50.87 129.73 33.43 166.58 56.17 167.91 50.87"/>
    <circle class="cls-1" cx="112.76" cy="71.78" r="13.96"/>
  </g>
</svg>